<svg width="1427" height="899" viewBox="0 0 1427 899" fill="none" xmlns="http://www.w3.org/2000/svg">
<path opacity="0.997" fill-rule="evenodd" clip-rule="evenodd" d="M946.5 0.500093C1055.17 95.5001 1163.83 190.5 1272.5 285.5C1250.68 291.455 1228.68 297.121 1206.5 302.5C1148.19 251.032 1089.69 199.699 1031 148.5C1030.54 149.094 1030.37 149.761 1030.5 150.5C1018.3 115.563 993.96 94.8961 957.5 88.5001C962.42 88.8901 962.76 87.7231 958.5 85.0001C928.96 59.2901 899.29 33.7901 869.5 8.50009C894.69 2.62809 920.36 -0.0389071 946.5 0.500093Z" fill="#E217D5"/>
<path opacity="0.996" fill-rule="evenodd" clip-rule="evenodd" d="M946.5 0.500082C967.49 -0.0279184 988.16 1.63808 1008.5 5.50008C1109.27 93.7261 1210.27 181.726 1311.5 269.5C1311.87 271.441 1312.54 273.275 1313.5 275C1300.08 279.273 1286.41 282.773 1272.5 285.5C1163.83 190.5 1055.17 95.5001 946.5 0.500082Z" fill="#E513D3"/>
<path opacity="0.983" fill-rule="evenodd" clip-rule="evenodd" d="M1008.5 5.5C1120.24 25.164 1207.08 82.164 1269 176.5C1286.95 205.729 1301.11 236.729 1311.5 269.5C1210.27 181.726 1109.27 93.726 1008.5 5.5Z" fill="#E910D1"/>
<path opacity="0.994" fill-rule="evenodd" clip-rule="evenodd" d="M869.5 8.5C899.29 33.79 928.96 59.29 958.5 85C962.76 87.723 962.42 88.89 957.5 88.5C930.78 86.186 907.44 93.853 887.5 111.5C886.46 108.944 884.79 106.777 882.5 105C853.68 80.674 825.34 55.841 797.5 30.5C820.68 20.551 844.68 13.217 869.5 8.5Z" fill="#DD1BD8"/>
<path opacity="0.996" fill-rule="evenodd" clip-rule="evenodd" d="M797.5 30.5C825.34 55.841 853.68 80.674 882.5 105C884.79 106.777 886.46 108.944 887.5 111.5C865.5 133.835 857.17 160.501 862.5 191.5C816.61 151.726 770.94 111.726 725.5 71.5C747.87 55.305 771.87 41.638 797.5 30.5Z" fill="#D620DC"/>
<path opacity="0.996" fill-rule="evenodd" clip-rule="evenodd" d="M725.5 71.5C770.94 111.726 816.61 151.726 862.5 191.5C872.98 232.641 899.31 255.641 941.5 260.5C973.61 288.726 1005.94 316.726 1038.5 344.5C1012.9 351.153 987.23 357.986 961.5 365C958.21 367.412 957.04 370.579 958 374.5C963.51 380.865 969.01 387.198 974.5 393.5C871.52 304.189 768.52 214.856 665.5 125.5C683.334 104.994 703.33 86.994 725.5 71.5Z" fill="#D124DE"/>
<path fill-rule="evenodd" clip-rule="evenodd" d="M957.5 88.5C993.96 94.896 1018.3 115.563 1030.5 150.5C1036.52 177.029 1032.19 201.696 1017.5 224.5C998.46 249.348 973.13 261.348 941.5 260.5C899.31 255.641 872.98 232.641 862.5 191.5C857.17 160.501 865.5 133.835 887.5 111.5C907.44 93.853 930.78 86.186 957.5 88.5Z" fill="#FEFEFE"/>
<path opacity="0.996" fill-rule="evenodd" clip-rule="evenodd" d="M665.5 125.5C768.52 214.856 871.52 304.189 974.5 393.5C1026.86 446.529 1078.86 499.862 1130.5 553.5C1131.63 554.858 1131.63 556.19 1130.5 557.5C1104.97 569.21 1078.31 576.88 1050.5 580.5C967.43 507.115 884.09 433.949 800.5 361C798.6 359.579 796.6 358.412 794.5 357.5C790.51 347.523 785.51 338.189 779.5 329.5C759.99 294.205 734.99 263.205 704.5 236.5C686.939 216.933 666.272 201.6 642.5 190.5C636.166 187.335 630.166 183.669 624.5 179.5C635.871 159.791 649.537 141.791 665.5 125.5Z" fill="#CB28E2"/>
<path opacity="0.987" fill-rule="evenodd" clip-rule="evenodd" d="M462.5 137.5C352.998 194.418 243.331 251.085 133.5 307.5C199.826 210.964 291.492 155.131 408.5 140C426.457 138.243 444.457 137.41 462.5 137.5Z" fill="#5455CF"/>
<path opacity="0.995" fill-rule="evenodd" clip-rule="evenodd" d="M462.5 137.5C481.245 138.598 499.911 140.598 518.5 143.5C381.025 215.072 243.358 286.405 105.5 357.5C113.316 339.856 122.65 323.189 133.5 307.5C243.331 251.085 352.998 194.418 462.5 137.5Z" fill="#4F5BD2"/>
<path opacity="0.996" fill-rule="evenodd" clip-rule="evenodd" d="M518.5 143.5C530.736 145.892 542.736 148.892 554.5 152.5C400.297 232.435 245.963 312.102 91.5 391.5C95.21 379.687 99.876 368.354 105.5 357.5C243.358 286.405 381.025 215.072 518.5 143.5Z" fill="#4C5FD4"/>
<path fill-rule="evenodd" clip-rule="evenodd" d="M934.5 148.5C957.47 148.303 967.63 159.636 965 182.5C956.76 199.36 943.92 204.194 926.5 197C916.55 190.504 912.39 181.337 914 169.5C916.7 178.27 922.54 181.437 931.5 179C937.05 176.737 939.72 172.57 939.5 166.5C938.69 158.196 934.03 153.696 925.5 153C928.32 150.921 931.32 149.421 934.5 148.5Z" fill="#323232"/>
<path opacity="0.996" fill-rule="evenodd" clip-rule="evenodd" d="M1206.5 302.5C1180.95 309.304 1155.29 315.637 1129.5 321.5C1092.76 288.426 1055.43 256.093 1017.5 224.5C1032.19 201.696 1036.52 177.029 1030.5 150.5C1030.37 149.761 1030.54 149.094 1031 148.5C1089.69 199.699 1148.19 251.032 1206.5 302.5Z" fill="#DD1AD8"/>
<path opacity="0.997" fill-rule="evenodd" clip-rule="evenodd" d="M554.5 152.5C560.319 153.704 565.985 155.371 571.5 157.5C528.5 180.167 485.5 202.833 442.5 225.5C419.633 228.43 400.633 238.43 385.5 255.5C377.627 258.434 369.961 261.934 362.5 266C270.14 313.846 177.807 361.68 85.5 409.5C87.304 403.421 89.304 397.421 91.5 391.5C245.963 312.102 400.297 232.435 554.5 152.5Z" fill="#4962D5"/>
<path opacity="0.994" fill-rule="evenodd" clip-rule="evenodd" d="M571.5 157.5C585.957 162.063 599.957 167.73 613.5 174.5C573.821 195.673 533.821 216.34 493.5 236.5C477.439 228.621 460.439 224.954 442.5 225.5C485.5 202.833 528.5 180.167 571.5 157.5Z" fill="#4666D7"/>
<path fill-rule="evenodd" clip-rule="evenodd" d="M613.5 174.5C617.043 176.438 620.71 178.105 624.5 179.5C630.166 183.669 636.166 187.335 642.5 190.5C642.833 191.5 643.5 192.167 644.5 192.5C644.631 193.376 644.298 194.043 643.5 194.5C601.936 216.115 560.27 237.448 518.5 258.5C511.378 249.707 503.045 242.373 493.5 236.5C533.821 216.34 573.821 195.673 613.5 174.5Z" fill="#426BD9"/>
<path fill-rule="evenodd" clip-rule="evenodd" d="M644.5 192.5C650.14 196.147 655.473 200.147 660.5 204.5C615.767 226.367 571.434 249.033 527.5 272.5C524.999 267.494 521.999 262.827 518.5 258.5C560.27 237.448 601.936 216.115 643.5 194.5C644.298 194.043 644.631 193.376 644.5 192.5Z" fill="#3F6FDB"/>
<path opacity="0.998" fill-rule="evenodd" clip-rule="evenodd" d="M642.5 190.5C666.272 201.6 686.939 216.933 704.5 236.5C730.71 267.612 745.38 303.612 748.5 344.5C749.39 369.922 746.73 394.922 740.5 419.5C739.2 426.852 737.2 434.019 734.5 441C740.21 447.613 745.54 454.446 750.5 461.5C760.8 482.648 761.14 503.982 751.5 525.5C734.75 555.544 709.08 568.71 674.5 565C669.362 563.94 664.362 562.44 659.5 560.5C651.816 570.04 644.649 580.04 638 590.5C631.667 598.5 625.333 606.5 619 614.5C606.939 627.39 594.772 640.06 582.5 652.5C553.305 678.81 520.305 699.31 483.5 714C469.078 719.1 454.411 723.27 439.5 726.5C411.342 731.26 383.009 732.59 354.5 730.5C343.28 728.61 331.946 726.61 320.5 724.5C307.678 721.12 295.011 717.12 282.5 712.5C280.833 713.67 279.167 714.83 277.5 716C275.5 716.67 273.5 716.67 271.5 716C265.148 712.32 258.481 709.49 251.5 707.5C244.283 703.64 237.116 699.64 230 695.5C227.278 686.77 229.778 679.94 237.5 675C239.5 674.33 241.5 674.33 243.5 675C252.522 679.18 261.522 683.35 270.5 687.5C275.528 690.44 280.361 693.77 285 697.5C285.186 700.04 285.686 702.37 286.5 704.5C294.561 707.96 302.894 710.63 311.5 712.5C331.684 718.64 352.351 721.98 373.5 722.5C438.56 724.53 497.227 706.37 549.5 668C577.728 646.61 602.395 621.77 623.5 593.5C633.336 581.69 642.336 569.19 650.5 556C645.378 552.71 640.711 548.877 636.5 544.5C632.002 539.486 628.002 534.153 624.5 528.5C617.752 514.276 615.085 499.276 616.5 483.5C623.523 454.639 641.19 435.472 669.5 426C679.655 424.297 689.822 424.131 700 425.5C701.819 423.874 703.15 421.874 704 419.5C707.34 411.654 710.17 403.654 712.5 395.5C717.04 384.01 720.04 372.01 721.5 359.5C722.83 350.222 723.49 340.889 723.5 331.5C723.67 324.27 723 317.27 721.5 310.5C721.06 303.628 719.73 296.962 717.5 290.5C714.99 280.628 711.32 271.295 706.5 262.5C701.402 251.086 694.735 240.752 686.5 231.5C679.207 221.206 670.54 212.206 660.5 204.5C655.473 200.147 650.14 196.147 644.5 192.5C643.5 192.167 642.833 191.5 642.5 190.5Z" fill="#0753AD"/>
<path fill-rule="evenodd" clip-rule="evenodd" d="M660.5 204.5C670.54 212.206 679.207 221.206 686.5 231.5C637.22 256.807 587.887 282.141 538.5 307.5C537.828 306.051 537.161 304.718 536.5 303.5C535.721 292.5 532.721 282.167 527.5 272.5C571.434 249.033 615.767 226.367 660.5 204.5Z" fill="#3C73DC"/>
<path fill-rule="evenodd" clip-rule="evenodd" d="M442.5 225.5C460.439 224.954 477.439 228.621 493.5 236.5C503.045 242.373 511.378 249.707 518.5 258.5C521.999 262.827 524.999 267.494 527.5 272.5C532.721 282.167 535.721 292.5 536.5 303.5C537.977 321.987 534.31 339.32 525.5 355.5C506.126 385.357 478.46 399.69 442.5 398.5C425.345 396.452 410.011 390.118 396.5 379.5C386.631 370.967 378.631 360.967 372.5 349.5C371.008 345.013 369.342 340.68 367.5 336.5C364.941 325.664 363.941 314.664 364.5 303.5C366.613 285.282 373.613 269.282 385.5 255.5C400.633 238.43 419.633 228.43 442.5 225.5Z" fill="#FEFEFE"/>
<path fill-rule="evenodd" clip-rule="evenodd" d="M686.5 231.5C694.735 240.752 701.402 251.086 706.5 262.5C646.168 294.328 585.835 325.328 525.5 355.5C534.31 339.32 537.977 321.987 536.5 303.5C537.161 304.718 537.828 306.051 538.5 307.5C587.887 282.141 637.22 256.807 686.5 231.5Z" fill="#3779DF"/>
<path opacity="0.995" fill-rule="evenodd" clip-rule="evenodd" d="M1017.5 224.5C1055.43 256.093 1092.76 288.426 1129.5 321.5C1099.39 329.611 1069.06 337.277 1038.5 344.5C1005.94 316.726 973.61 288.726 941.5 260.5C973.13 261.348 998.46 249.348 1017.5 224.5Z" fill="#D620DC"/>
<path opacity="0.997" fill-rule="evenodd" clip-rule="evenodd" d="M385.5 255.5C373.613 269.282 366.613 285.282 364.5 303.5C286.5 343.833 208.5 384.167 130.5 424.5C114.872 421.427 99.539 417.427 84.5 412.5C85.127 411.583 85.461 410.583 85.5 409.5C177.807 361.68 270.14 313.846 362.5 266C369.961 261.934 377.627 258.434 385.5 255.5Z" fill="#4666D7"/>
<path opacity="0.998" fill-rule="evenodd" clip-rule="evenodd" d="M706.5 262.5C711.32 271.295 714.99 280.628 717.5 290.5C595.466 353.85 473.466 417.183 351.5 480.5C336.833 476.833 322.167 473.167 307.5 469.5C352.658 446.088 397.658 422.422 442.5 398.5C478.46 399.69 506.126 385.357 525.5 355.5C585.835 325.328 646.168 294.328 706.5 262.5Z" fill="#337FE1"/>
<path opacity="0.998" fill-rule="evenodd" clip-rule="evenodd" d="M717.5 290.5C719.73 296.962 721.06 303.628 721.5 310.5C607.642 369.261 493.975 428.261 380.5 487.5C370.792 485.323 361.126 482.99 351.5 480.5C473.466 417.183 595.466 353.85 717.5 290.5Z" fill="#3082E3"/>
<path fill-rule="evenodd" clip-rule="evenodd" d="M450.5 293.5C458.681 292.549 466.347 294.049 473.5 298C459.151 299.012 454.651 306.178 460 319.5C470.262 327.509 477.929 325.509 483 313.5C484.197 335.636 473.697 346.136 451.5 345C436.799 339.623 430.299 329.123 432 313.5C435.291 304.047 441.458 297.38 450.5 293.5Z" fill="#323232"/>
<path fill-rule="evenodd" clip-rule="evenodd" d="M704.5 236.5C734.99 263.205 759.99 294.205 779.5 329.5C769.01 334.244 758.68 339.244 748.5 344.5C745.38 303.612 730.71 267.612 704.5 236.5Z" fill="#2F84E4"/>
<path opacity="0.998" fill-rule="evenodd" clip-rule="evenodd" d="M721.5 310.5C723 317.27 723.67 324.27 723.5 331.5C723.49 340.889 722.83 350.222 721.5 359.5C625.037 408.898 528.703 458.565 432.5 508.5C430.408 504.572 427.408 501.406 423.5 499C409.089 495.314 394.755 491.481 380.5 487.5C493.975 428.261 607.642 369.261 721.5 310.5Z" fill="#2D86E4"/>
<path opacity="0.996" fill-rule="evenodd" clip-rule="evenodd" d="M364.5 303.5C363.941 314.664 364.941 325.664 367.5 336.5C303.991 370.088 240.324 403.422 176.5 436.5C160.982 432.788 145.649 428.788 130.5 424.5C208.5 384.167 286.5 343.833 364.5 303.5Z" fill="#426BD9"/>
<path opacity="0.996" fill-rule="evenodd" clip-rule="evenodd" d="M367.5 336.5C369.342 340.68 371.008 345.013 372.5 349.5C372.67 350.822 372.337 351.989 371.5 353C313.948 382.608 256.615 412.441 199.5 442.5C191.893 440.348 184.226 438.348 176.5 436.5C240.324 403.422 303.991 370.088 367.5 336.5Z" fill="#3F6FDB"/>
<path opacity="0.995" fill-rule="evenodd" clip-rule="evenodd" d="M372.5 349.5C378.631 360.967 386.631 370.967 396.5 379.5C396.631 380.376 396.298 381.043 395.5 381.5C348.105 406.196 300.772 430.863 253.5 455.5C235.506 451.168 217.506 446.835 199.5 442.5C256.615 412.441 313.948 382.608 371.5 353C372.337 351.989 372.67 350.822 372.5 349.5Z" fill="#3C73DC"/>
<path fill-rule="evenodd" clip-rule="evenodd" d="M779.5 329.5C785.51 338.189 790.51 347.523 794.5 357.5C799.05 366.601 803.05 375.935 806.5 385.5C784.5 396.833 762.5 408.167 740.5 419.5C746.73 394.922 749.39 369.922 748.5 344.5C758.68 339.244 769.01 334.244 779.5 329.5Z" fill="#288CE7"/>
<path opacity="0.755" fill-rule="evenodd" clip-rule="evenodd" d="M1421.5 361.5C1425.5 360.833 1427.17 362.5 1426.5 366.5C1414.83 368.5 1403.17 370.5 1391.5 372.5C1391.29 370.856 1391.62 369.356 1392.5 368C1402.4 366.257 1412.06 364.091 1421.5 361.5Z" fill="#DA40A6"/>
<path fill-rule="evenodd" clip-rule="evenodd" d="M794.5 357.5C796.6 358.412 798.6 359.579 800.5 361C884.09 433.949 967.43 507.115 1050.5 580.5C983.68 588.59 922.01 574.42 865.5 538C853.67 529.669 842.01 521.169 830.5 512.5C830.73 504.791 830.4 497.124 829.5 489.5C827.79 468.238 824.46 447.238 819.5 426.5C816.17 412.5 811.83 398.833 806.5 385.5C803.05 375.935 799.05 366.601 794.5 357.5Z" fill="#C52DE5"/>
<path opacity="0.995" fill-rule="evenodd" clip-rule="evenodd" d="M721.5 359.5C720.04 372.01 717.04 384.01 712.5 395.5C703.61 398.933 694.607 403.099 685.5 408C590.27 457.448 494.937 506.614 399.5 555.5C408.764 544.733 418.597 534.4 429 524.5C432.059 519.645 433.226 514.311 432.5 508.5C528.703 458.565 625.037 408.898 721.5 359.5Z" fill="#2A8AE6"/>
<path opacity="0.757" fill-rule="evenodd" clip-rule="evenodd" d="M1362.5 373.5C1363.5 373.5 1364.5 373.5 1365.5 373.5C1365.42 374.93 1365.75 376.264 1366.5 377.5C1344.65 382.804 1322.65 387.471 1300.5 391.5C1300.5 389.833 1300.5 388.167 1300.5 386.5C1321.39 382.656 1342.06 378.323 1362.5 373.5Z" fill="#DA40A6"/>
<path fill-rule="evenodd" clip-rule="evenodd" d="M806.5 385.5C811.83 398.833 816.17 412.5 819.5 426.5C796.34 437.911 773.34 449.578 750.5 461.5C745.54 454.446 740.21 447.613 734.5 441C737.2 434.019 739.2 426.852 740.5 419.5C762.5 408.167 784.5 396.833 806.5 385.5Z" fill="#2492EA"/>
<path opacity="0.994" fill-rule="evenodd" clip-rule="evenodd" d="M396.5 379.5C410.011 390.118 425.345 396.452 442.5 398.5C397.658 422.422 352.658 446.088 307.5 469.5C289.316 465.122 271.316 460.455 253.5 455.5C300.772 430.863 348.105 406.196 395.5 381.5C396.298 381.043 396.631 380.376 396.5 379.5Z" fill="#3779DF"/>
<path opacity="0.994" fill-rule="evenodd" clip-rule="evenodd" d="M712.5 395.5C710.17 403.654 707.34 411.654 704 419.5C703.15 421.874 701.819 423.874 700 425.5C689.822 424.131 679.655 424.297 669.5 426C641.19 435.472 623.523 454.639 616.5 483.5C518.297 534.435 419.963 585.1 321.5 635.5C347.165 608.5 373.165 581.84 399.5 555.5C494.937 506.614 590.27 457.448 685.5 408C694.607 403.099 703.61 398.933 712.5 395.5Z" fill="#278DE8"/>
<path opacity="0.735" fill-rule="evenodd" clip-rule="evenodd" d="M1272.5 436.5C1279.23 438.022 1285.9 439.855 1292.5 442C1294.06 444.476 1293.4 445.976 1290.5 446.5C1284.57 444.518 1278.57 442.851 1272.5 441.5C1272.5 439.833 1272.5 438.167 1272.5 436.5Z" fill="#DA40A6"/>
<path opacity="0.75" fill-rule="evenodd" clip-rule="evenodd" d="M1318.5 449.5C1340.22 455.628 1361.89 461.962 1383.5 468.5C1382.75 469.736 1382.42 471.07 1382.5 472.5C1360.83 466.5 1339.17 460.5 1317.5 454.5C1317.63 452.784 1317.96 451.117 1318.5 449.5Z" fill="#DA40A6"/>
<path fill-rule="evenodd" clip-rule="evenodd" d="M819.5 426.5C824.46 447.238 827.79 468.238 829.5 489.5C828.84 488.602 828.18 487.602 827.5 486.5C802.11 499.526 776.78 512.526 751.5 525.5C761.14 503.982 760.8 482.648 750.5 461.5C773.34 449.578 796.34 437.911 819.5 426.5Z" fill="#1E99ED"/>
<path opacity="0.997" fill-rule="evenodd" clip-rule="evenodd" d="M616.5 483.5C615.085 499.276 617.752 514.276 624.5 528.5C623.883 528.389 623.383 528.056 623 527.5C512.069 585.38 400.902 642.88 289.5 700C287.561 700.91 286.561 702.41 286.5 704.5C285.686 702.37 285.186 700.04 285 697.5C280.361 693.77 275.528 690.44 270.5 687.5C287.5 670.17 304.5 652.83 321.5 635.5C419.963 585.1 518.297 534.435 616.5 483.5Z" fill="#2392EA"/>
<path fill-rule="evenodd" clip-rule="evenodd" d="M829.5 489.5C830.4 497.124 830.73 504.791 830.5 512.5C830.5 516.167 830.5 519.833 830.5 523.5C830.82 529.026 830.49 534.36 829.5 539.5C829.83 535.116 829.49 530.783 828.5 526.5C755.5 564.33 682.5 602.17 609.5 640C600.707 644.73 591.707 648.9 582.5 652.5C594.772 640.06 606.939 627.39 619 614.5C625.333 606.5 631.667 598.5 638 590.5C644.649 580.04 651.816 570.04 659.5 560.5C664.362 562.44 669.362 563.94 674.5 565C709.08 568.71 734.75 555.544 751.5 525.5C776.78 512.526 802.11 499.526 827.5 486.5C828.18 487.602 828.84 488.602 829.5 489.5Z" fill="#1A9EEF"/>
<path opacity="0.737" fill-rule="evenodd" clip-rule="evenodd" d="M1.5 498.5C13.285 500.657 24.952 503.324 36.5 506.5C36.023 507.931 35.357 509.264 34.5 510.5C23.048 508.211 11.714 505.544 0.5 502.5C1.246 501.264 1.579 499.93 1.5 498.5Z" fill="#0752AD"/>
<path opacity="0.759" fill-rule="evenodd" clip-rule="evenodd" d="M61.5 511.5C83.209 515.342 104.875 519.508 126.5 524C126.966 525.299 126.966 526.799 126.5 528.5C105.146 524.529 83.813 520.363 62.5 516C61.62 514.644 61.286 513.144 61.5 511.5Z" fill="#0752AD"/>
<path opacity="0.726" fill-rule="evenodd" clip-rule="evenodd" d="M1271.5 511.5C1290.38 524.042 1308.71 537.375 1326.5 551.5C1325.92 553.002 1325.08 554.335 1324 555.5C1305.67 541.994 1287.5 528.328 1269.5 514.5C1270.19 513.482 1270.86 512.482 1271.5 511.5Z" fill="#DA40A6"/>
<path opacity="0.98" fill-rule="evenodd" clip-rule="evenodd" d="M830.5 512.5C842.01 521.169 853.67 529.669 865.5 538C922.01 574.42 983.68 588.59 1050.5 580.5C1078.31 576.88 1104.97 569.21 1130.5 557.5C1131.63 556.19 1131.63 554.858 1130.5 553.5C1131.09 551.16 1132.09 548.993 1133.5 547C1147.17 538.824 1161.17 531.324 1175.5 524.5C1179.93 525.097 1183.1 527.43 1185 531.5C1190.32 540.363 1188.15 546.863 1178.5 551C1167.72 557.39 1156.72 563.22 1145.5 568.5C1141.56 568.93 1138.06 567.93 1135 565.5C1108.72 577.02 1081.55 585.02 1053.5 589.5C1025.09 592.62 996.76 592.12 968.5 588C955.98 585.8 943.65 582.97 931.5 579.5C894.43 566.72 860.76 548.049 830.5 523.5C830.5 519.833 830.5 516.167 830.5 512.5Z" fill="#FD2FBA"/>
<path opacity="0.998" fill-rule="evenodd" clip-rule="evenodd" d="M830.5 523.5C860.76 548.049 894.43 566.72 931.5 579.5C987.75 629.63 1044.42 679.29 1101.5 728.5C1071.87 742 1040.87 751.33 1008.5 756.5C949.66 704.16 890.32 652.33 830.5 601C827.55 598.56 825.22 595.73 823.5 592.5C826.7 575.64 828.7 558.64 829.5 541.5C829.5 540.833 829.5 540.167 829.5 539.5C830.49 534.36 830.82 529.026 830.5 523.5Z" fill="#BE32E9"/>
<path opacity="0.999" fill-rule="evenodd" clip-rule="evenodd" d="M829.5 539.5C829.5 540.167 829.5 540.833 829.5 541.5C635.845 640.99 442.512 740.99 249.5 841.5C244.457 838.99 239.79 835.99 235.5 832.5C302.27 798.61 368.936 764.45 435.5 730C437.093 729.05 438.426 727.88 439.5 726.5C454.411 723.27 469.078 719.1 483.5 714C520.305 699.31 553.305 678.81 582.5 652.5C591.707 648.9 600.707 644.73 609.5 640C682.5 602.17 755.5 564.33 828.5 526.5C829.49 530.783 829.83 535.116 829.5 539.5Z" fill="#17A1F0"/>
<path fill-rule="evenodd" clip-rule="evenodd" d="M624.5 528.5C628.002 534.153 632.002 539.486 636.5 544.5C527.731 599.72 419.397 655.72 311.5 712.5C302.894 710.63 294.561 707.96 286.5 704.5C286.561 702.41 287.561 700.91 289.5 700C400.902 642.88 512.069 585.38 623 527.5C623.383 528.056 623.883 528.389 624.5 528.5Z" fill="#2096EC"/>
<path opacity="0.999" fill-rule="evenodd" clip-rule="evenodd" d="M829.5 541.5C828.7 558.64 826.7 575.64 823.5 592.5C822.5 595.83 821.5 599.17 820.5 602.5C810.94 606.27 801.27 610.77 791.5 616C628.439 700.53 465.439 785.03 302.5 869.5C284.039 861.44 266.373 852.11 249.5 841.5C442.512 740.99 635.845 640.99 829.5 541.5Z" fill="#15A5F2"/>
<path fill-rule="evenodd" clip-rule="evenodd" d="M636.5 544.5C640.711 548.877 645.378 552.71 650.5 556C642.336 569.19 633.336 581.69 623.5 593.5C623.44 592.96 623.107 592.62 622.5 592.5C542.167 634 461.833 675.5 381.5 717C378.593 718.61 375.927 720.44 373.5 722.5C352.351 721.98 331.684 718.64 311.5 712.5C419.397 655.72 527.731 599.72 636.5 544.5Z" fill="#1D9AED"/>
<path opacity="0.714" fill-rule="evenodd" clip-rule="evenodd" d="M1340.5 562.5C1347.28 566.73 1353.95 571.23 1360.5 576C1364.61 579.07 1364.27 581.07 1359.5 582C1352.46 576.49 1345.46 570.99 1338.5 565.5C1339.19 564.48 1339.86 563.48 1340.5 562.5Z" fill="#DA40A6"/>
<path opacity="0.987" fill-rule="evenodd" clip-rule="evenodd" d="M1145.5 568.5C1170.34 594.17 1195.01 620.01 1219.5 646C1205.07 662.52 1188.74 676.69 1170.5 688.5C1133.36 655.53 1096.03 622.7 1058.5 590C1056.87 589.51 1055.2 589.34 1053.5 589.5C1081.55 585.02 1108.72 577.02 1135 565.5C1138.06 567.93 1141.56 568.93 1145.5 568.5Z" fill="#CA29E2"/>
<path opacity="0.714" fill-rule="evenodd" clip-rule="evenodd" d="M153.5 573.5C154.914 575.04 155.247 576.71 154.5 578.5C148.167 580.5 141.833 582.5 135.5 584.5C134.042 582.86 133.708 581.19 134.5 579.5C140.993 577.63 147.327 575.63 153.5 573.5Z" fill="#0752AD"/>
<path opacity="0.996" fill-rule="evenodd" clip-rule="evenodd" d="M931.5 579.5C943.65 582.97 955.98 585.8 968.5 588C996.76 592.12 1025.09 592.62 1053.5 589.5C1055.2 589.34 1056.87 589.51 1058.5 590C1096.03 622.7 1133.36 655.53 1170.5 688.5C1149.28 704.62 1126.28 717.95 1101.5 728.5C1044.42 679.29 987.75 629.63 931.5 579.5Z" fill="#C42EE5"/>
<path opacity="0.753" fill-rule="evenodd" clip-rule="evenodd" d="M104.5 587.5C106.167 587.5 107.833 587.5 109.5 587.5C109.714 589.14 109.38 590.64 108.5 592C87.308 598.46 65.975 604.3 44.5 609.5C44.286 607.86 44.62 606.36 45.5 605C65.369 599.43 85.035 593.6 104.5 587.5Z" fill="#0752AD"/>
<path fill-rule="evenodd" clip-rule="evenodd" d="M623.5 593.5C602.395 621.77 577.728 646.61 549.5 668C497.227 706.37 438.56 724.53 373.5 722.5C375.927 720.44 378.593 718.61 381.5 717C461.833 675.5 542.167 634 622.5 592.5C623.107 592.62 623.44 592.96 623.5 593.5Z" fill="#1A9DEF"/>
<path opacity="0.996" fill-rule="evenodd" clip-rule="evenodd" d="M823.5 592.5C825.22 595.73 827.55 598.56 830.5 601C890.32 652.33 949.66 704.16 1008.5 756.5C981.31 760.82 953.97 762.16 926.5 760.5C886.56 725.74 846.73 690.74 807 655.5C806.52 654.55 806.35 653.55 806.5 652.5C812.41 636.18 817.08 619.52 820.5 602.5C821.5 599.17 822.5 595.83 823.5 592.5Z" fill="#B936EB"/>
<path opacity="0.999" fill-rule="evenodd" clip-rule="evenodd" d="M820.5 602.5C817.08 619.52 812.41 636.18 806.5 652.5C803.83 658.5 801.17 664.5 798.5 670.5C798.63 669.62 798.3 668.96 797.5 668.5C654.458 742.02 511.791 816.02 369.5 890.5C346.589 885.31 324.256 878.31 302.5 869.5C465.439 785.03 628.439 700.53 791.5 616C801.27 610.77 810.94 606.27 820.5 602.5Z" fill="#10ABF5"/>
<path opacity="0.726" fill-rule="evenodd" clip-rule="evenodd" d="M154.5 648.5C156.022 649.19 157.022 650.36 157.5 652C139.943 666.05 121.943 679.55 103.5 692.5C100.681 690.81 100.348 688.97 102.5 687C120.016 674.3 137.35 661.47 154.5 648.5Z" fill="#0752AD"/>
<path opacity="0.998" fill-rule="evenodd" clip-rule="evenodd" d="M798.5 670.5C796.06 677.17 793.06 683.5 789.5 689.5C789.63 688.76 789.46 688.09 789 687.5C656.027 756.4 523.193 825.4 390.5 894.5C383.507 893.17 376.507 891.83 369.5 890.5C511.791 816.02 654.458 742.02 797.5 668.5C798.3 668.96 798.63 669.62 798.5 670.5Z" fill="#0DAFF6"/>
<path opacity="0.978" fill-rule="evenodd" clip-rule="evenodd" d="M806.5 652.5C806.35 653.55 806.52 654.55 807 655.5C846.73 690.74 886.56 725.74 926.5 760.5C872.69 757.78 821.69 744.45 773.5 720.5C779.07 710.37 784.4 700.03 789.5 689.5C793.06 683.5 796.06 677.17 798.5 670.5C801.17 664.5 803.83 658.5 806.5 652.5Z" fill="#B43AEE"/>
<path opacity="0.996" fill-rule="evenodd" clip-rule="evenodd" d="M789.5 689.5C784.4 700.03 779.07 710.37 773.5 720.5C764.3 734.7 754.3 748.37 743.5 761.5C655.669 806.58 568.002 851.92 480.5 897.5C450.416 899.47 420.416 898.47 390.5 894.5C523.193 825.4 656.027 756.4 789 687.5C789.46 688.09 789.63 688.76 789.5 689.5Z" fill="#0AB2F8"/>
<path opacity="0.713" fill-rule="evenodd" clip-rule="evenodd" d="M85.5 699.5C88.157 700.48 88.823 702.15 87.5 704.5C81.024 709.14 74.691 713.97 68.5 719C66.633 719.71 65.133 719.21 64 717.5C63.383 716.55 63.549 715.72 64.5 715C71.683 709.97 78.683 704.8 85.5 699.5Z" fill="#0752AD"/>
<path opacity="0.994" fill-rule="evenodd" clip-rule="evenodd" d="M251.5 707.5C258.481 709.49 265.148 712.32 271.5 716C273.5 716.67 275.5 716.67 277.5 716C279.167 714.83 280.833 713.67 282.5 712.5C295.011 717.12 307.678 721.12 320.5 724.5C276.358 747.74 232.025 770.74 187.5 793.5C184.036 790.54 180.703 787.37 177.5 784C202.397 758.6 227.064 733.1 251.5 707.5Z" fill="#1F98EC"/>
<path opacity="0.996" fill-rule="evenodd" clip-rule="evenodd" d="M320.5 724.5C331.946 726.61 343.28 728.61 354.5 730.5C304.822 757.01 254.822 783.01 204.5 808.5C198.511 803.84 192.844 798.84 187.5 793.5C232.025 770.74 276.358 747.74 320.5 724.5Z" fill="#1C9BEE"/>
<path opacity="0.996" fill-rule="evenodd" clip-rule="evenodd" d="M439.5 726.5C438.426 727.88 437.093 729.05 435.5 730C368.936 764.45 302.27 798.61 235.5 832.5C224.571 825.23 214.238 817.23 204.5 808.5C254.822 783.01 304.822 757.01 354.5 730.5C383.009 732.59 411.342 731.26 439.5 726.5Z" fill="#1A9EEF"/>
<path opacity="0.984" fill-rule="evenodd" clip-rule="evenodd" d="M743.5 761.5C674.703 842.4 587.036 887.74 480.5 897.5C568.002 851.92 655.669 806.58 743.5 761.5Z" fill="#07B6FA"/>
</svg>
